<svg width="128" height="128" viewBox="0 0 128 128" fill="none" xmlns="http://www.w3.org/2000/svg">
<path d="M66 5.7735L113.426 33.1547C114.663 33.8692 115.426 35.1897 115.426 36.6188V91.3812C115.426 92.8103 114.663 94.1308 113.426 94.8453L66 122.227C64.7624 122.941 63.2376 122.941 62 122.226L14.5744 94.8453C13.3368 94.1308 12.5744 92.8103 12.5744 91.3812V36.6188C12.5744 35.1897 13.3368 33.8692 14.5744 33.1547L62 5.7735C63.2376 5.05897 64.7624 5.05897 66 5.7735Z" stroke="#FFBB00" stroke-width="8"/>
<path d="M66 37.7735L85.7128 49.1547C86.9504 49.8692 87.7128 51.1897 87.7128 52.6188V75.3812C87.7128 76.8103 86.9504 78.1308 85.7128 78.8453L66 90.2265C64.7624 90.941 63.2376 90.941 62 90.2265L42.2872 78.8453C41.0496 78.1308 40.2872 76.8103 40.2872 75.3812V52.6188C40.2872 51.1897 41.0496 49.8692 42.2872 49.1547L62 37.7735C63.2376 37.059 64.7624 37.059 66 37.7735Z" stroke="#FFBB00" stroke-width="8"/>
<path d="M113 37L88.5 51.3333M64 123V88.5M15 37L39.5 51.3333" stroke="#FFBB00" stroke-width="8"/>
</svg>
